<svg xmlns="http://www.w3.org/2000/svg" viewBox="0 0 1000 582" role="img" aria-label="5F1 · eyelet board layout — redrawn board layout diagram" width="100%" font-family="'Avenir Next Condensed','Arial Narrow','Helvetica Neue',Arial,sans-serif">
<rect x="0" y="0" width="1000" height="582" fill="#120f0c"/>
<rect x="128" y="150" width="744" height="196" rx="10" fill="#c2a165" stroke="#6f5836" stroke-width="2"/>
<line x1="140" y1="194" x2="860" y2="194" stroke="#b7965c" stroke-width="12" opacity="0.35" stroke-linecap="round"/>
<line x1="140" y1="310" x2="860" y2="310" stroke="#b7965c" stroke-width="12" opacity="0.35" stroke-linecap="round"/>
<circle cx="158" cy="194" r="2.4" fill="#2a2016" opacity="0.5"/>
<circle cx="194" cy="194" r="2.4" fill="#2a2016" opacity="0.5"/>
<circle cx="230" cy="194" r="2.4" fill="#2a2016" opacity="0.5"/>
<circle cx="266" cy="194" r="2.4" fill="#2a2016" opacity="0.5"/>
<circle cx="302" cy="194" r="2.4" fill="#2a2016" opacity="0.5"/>
<circle cx="338" cy="194" r="2.4" fill="#2a2016" opacity="0.5"/>
<circle cx="374" cy="194" r="2.4" fill="#2a2016" opacity="0.5"/>
<circle cx="410" cy="194" r="2.4" fill="#2a2016" opacity="0.5"/>
<circle cx="446" cy="194" r="2.4" fill="#2a2016" opacity="0.5"/>
<circle cx="482" cy="194" r="2.4" fill="#2a2016" opacity="0.5"/>
<circle cx="518" cy="194" r="2.4" fill="#2a2016" opacity="0.5"/>
<circle cx="554" cy="194" r="2.4" fill="#2a2016" opacity="0.5"/>
<circle cx="590" cy="194" r="2.4" fill="#2a2016" opacity="0.5"/>
<circle cx="626" cy="194" r="2.4" fill="#2a2016" opacity="0.5"/>
<circle cx="662" cy="194" r="2.4" fill="#2a2016" opacity="0.5"/>
<circle cx="698" cy="194" r="2.4" fill="#2a2016" opacity="0.5"/>
<circle cx="734" cy="194" r="2.4" fill="#2a2016" opacity="0.5"/>
<circle cx="770" cy="194" r="2.4" fill="#2a2016" opacity="0.5"/>
<circle cx="806" cy="194" r="2.4" fill="#2a2016" opacity="0.5"/>
<circle cx="842" cy="194" r="2.4" fill="#2a2016" opacity="0.5"/>
<circle cx="158" cy="310" r="2.4" fill="#2a2016" opacity="0.5"/>
<circle cx="194" cy="310" r="2.4" fill="#2a2016" opacity="0.5"/>
<circle cx="230" cy="310" r="2.4" fill="#2a2016" opacity="0.5"/>
<circle cx="266" cy="310" r="2.4" fill="#2a2016" opacity="0.5"/>
<circle cx="302" cy="310" r="2.4" fill="#2a2016" opacity="0.5"/>
<circle cx="338" cy="310" r="2.4" fill="#2a2016" opacity="0.5"/>
<circle cx="374" cy="310" r="2.4" fill="#2a2016" opacity="0.5"/>
<circle cx="410" cy="310" r="2.4" fill="#2a2016" opacity="0.5"/>
<circle cx="446" cy="310" r="2.4" fill="#2a2016" opacity="0.5"/>
<circle cx="482" cy="310" r="2.4" fill="#2a2016" opacity="0.5"/>
<circle cx="518" cy="310" r="2.4" fill="#2a2016" opacity="0.5"/>
<circle cx="554" cy="310" r="2.4" fill="#2a2016" opacity="0.5"/>
<circle cx="590" cy="310" r="2.4" fill="#2a2016" opacity="0.5"/>
<circle cx="626" cy="310" r="2.4" fill="#2a2016" opacity="0.5"/>
<circle cx="662" cy="310" r="2.4" fill="#2a2016" opacity="0.5"/>
<circle cx="698" cy="310" r="2.4" fill="#2a2016" opacity="0.5"/>
<circle cx="734" cy="310" r="2.4" fill="#2a2016" opacity="0.5"/>
<circle cx="770" cy="310" r="2.4" fill="#2a2016" opacity="0.5"/>
<circle cx="806" cy="310" r="2.4" fill="#2a2016" opacity="0.5"/>
<circle cx="842" cy="310" r="2.4" fill="#2a2016" opacity="0.5"/>
<rect x="27" y="224" width="46" height="56" rx="4" fill="#211a14" stroke="#3a3025" stroke-width="1.5"/><line x1="44" y1="229" x2="44" y2="275" stroke="#7a6a54" stroke-width="1.4"/><line x1="50" y1="229" x2="50" y2="275" stroke="#7a6a54" stroke-width="1.4"/><line x1="56" y1="229" x2="56" y2="275" stroke="#7a6a54" stroke-width="1.4"/><text x="50" y="294" fill="#eee2c8" font-size="11.5" font-family="'Avenir Next Condensed','Arial Narrow','Helvetica Neue',Arial,sans-serif" font-weight="600" text-anchor="middle" letter-spacing="0.04em">Power trans</text>
<circle cx="230" cy="426" r="26" fill="#211a14" stroke="#e89b3f" stroke-width="1.8"/><circle cx="230" cy="426" r="6.5" fill="none" stroke="#7a6a54" stroke-width="1"/><circle cx="213.3" cy="445.9" r="2.1" fill="#a3927b"/><text x="218.8" y="442.4" fill="#7a6a54" font-size="7.5" font-family="'SF Mono',Menlo,Consolas,monospace" font-weight="600" text-anchor="middle">1</text><circle cx="204.4" cy="430.5" r="2.1" fill="#a3927b"/><text x="212.8" y="432" fill="#7a6a54" font-size="7.5" font-family="'SF Mono',Menlo,Consolas,monospace" font-weight="600" text-anchor="middle">2</text><circle cx="207.5" cy="413" r="2.1" fill="#a3927b"/><text x="214.8" y="420.2" fill="#7a6a54" font-size="7.5" font-family="'SF Mono',Menlo,Consolas,monospace" font-weight="600" text-anchor="middle">3</text><circle cx="221.1" cy="401.6" r="2.1" fill="#a3927b"/><text x="224" y="412.6" fill="#7a6a54" font-size="7.5" font-family="'SF Mono',Menlo,Consolas,monospace" font-weight="600" text-anchor="middle">4</text><circle cx="238.9" cy="401.6" r="2.1" fill="#a3927b"/><text x="236" y="412.6" fill="#7a6a54" font-size="7.5" font-family="'SF Mono',Menlo,Consolas,monospace" font-weight="600" text-anchor="middle">5</text><circle cx="252.5" cy="413" r="2.1" fill="#a3927b"/><text x="245.2" y="420.2" fill="#7a6a54" font-size="7.5" font-family="'SF Mono',Menlo,Consolas,monospace" font-weight="600" text-anchor="middle">6</text><circle cx="255.6" cy="430.5" r="2.1" fill="#a3927b"/><text x="247.2" y="432" fill="#7a6a54" font-size="7.5" font-family="'SF Mono',Menlo,Consolas,monospace" font-weight="600" text-anchor="middle">7</text><circle cx="246.7" cy="445.9" r="2.1" fill="#a3927b"/><text x="241.2" y="442.4" fill="#7a6a54" font-size="7.5" font-family="'SF Mono',Menlo,Consolas,monospace" font-weight="600" text-anchor="middle">8</text><text x="230" y="467" fill="#eee2c8" font-size="12" font-family="'Avenir Next Condensed','Arial Narrow','Helvetica Neue',Arial,sans-serif" font-weight="600" text-anchor="middle" letter-spacing="0.05em">V3 · 5Y3GT</text>
<circle cx="446" cy="426" r="26" fill="#211a14" stroke="#e89b3f" stroke-width="1.8"/><circle cx="446" cy="426" r="6.5" fill="none" stroke="#7a6a54" stroke-width="1"/><circle cx="429.3" cy="445.9" r="2.1" fill="#a3927b"/><text x="434.8" y="442.4" fill="#7a6a54" font-size="7.5" font-family="'SF Mono',Menlo,Consolas,monospace" font-weight="600" text-anchor="middle">1</text><circle cx="420.4" cy="430.5" r="2.1" fill="#a3927b"/><text x="428.8" y="432" fill="#7a6a54" font-size="7.5" font-family="'SF Mono',Menlo,Consolas,monospace" font-weight="600" text-anchor="middle">2</text><circle cx="423.5" cy="413" r="2.1" fill="#a3927b"/><text x="430.8" y="420.2" fill="#7a6a54" font-size="7.5" font-family="'SF Mono',Menlo,Consolas,monospace" font-weight="600" text-anchor="middle">3</text><circle cx="437.1" cy="401.6" r="2.1" fill="#a3927b"/><text x="440" y="412.6" fill="#7a6a54" font-size="7.5" font-family="'SF Mono',Menlo,Consolas,monospace" font-weight="600" text-anchor="middle">4</text><circle cx="454.9" cy="401.6" r="2.1" fill="#a3927b"/><text x="452" y="412.6" fill="#7a6a54" font-size="7.5" font-family="'SF Mono',Menlo,Consolas,monospace" font-weight="600" text-anchor="middle">5</text><circle cx="468.5" cy="413" r="2.1" fill="#a3927b"/><text x="461.2" y="420.2" fill="#7a6a54" font-size="7.5" font-family="'SF Mono',Menlo,Consolas,monospace" font-weight="600" text-anchor="middle">6</text><circle cx="471.6" cy="430.5" r="2.1" fill="#a3927b"/><text x="463.2" y="432" fill="#7a6a54" font-size="7.5" font-family="'SF Mono',Menlo,Consolas,monospace" font-weight="600" text-anchor="middle">7</text><circle cx="462.7" cy="445.9" r="2.1" fill="#a3927b"/><text x="457.2" y="442.4" fill="#7a6a54" font-size="7.5" font-family="'SF Mono',Menlo,Consolas,monospace" font-weight="600" text-anchor="middle">8</text><text x="446" y="467" fill="#eee2c8" font-size="12" font-family="'Avenir Next Condensed','Arial Narrow','Helvetica Neue',Arial,sans-serif" font-weight="600" text-anchor="middle" letter-spacing="0.05em">V2 · 6V6GT</text>
<circle cx="608" cy="426" r="9" fill="#120f0c" stroke="#a3927b" stroke-width="1.6"/><circle cx="608" cy="426" r="3" fill="#a3927b"/><text x="608" y="448" fill="#a3927b" font-size="10.5" font-family="'Avenir Next Condensed','Arial Narrow','Helvetica Neue',Arial,sans-serif" font-weight="600" text-anchor="middle" letter-spacing="0.03em">Spkr jack</text>
<circle cx="770" cy="426" r="26" fill="#211a14" stroke="#e89b3f" stroke-width="1.8"/><circle cx="770" cy="426" r="6.5" fill="none" stroke="#7a6a54" stroke-width="1"/><circle cx="754.7" cy="447" r="2.1" fill="#a3927b"/><text x="759.7" y="443.2" fill="#7a6a54" font-size="7.5" font-family="'SF Mono',Menlo,Consolas,monospace" font-weight="600" text-anchor="middle">1</text><circle cx="745.3" cy="434" r="2.1" fill="#a3927b"/><text x="753.4" y="434.4" fill="#7a6a54" font-size="7.5" font-family="'SF Mono',Menlo,Consolas,monospace" font-weight="600" text-anchor="middle">2</text><circle cx="745.3" cy="418" r="2.1" fill="#a3927b"/><text x="753.4" y="423.6" fill="#7a6a54" font-size="7.5" font-family="'SF Mono',Menlo,Consolas,monospace" font-weight="600" text-anchor="middle">3</text><circle cx="754.7" cy="405" r="2.1" fill="#a3927b"/><text x="759.7" y="414.8" fill="#7a6a54" font-size="7.5" font-family="'SF Mono',Menlo,Consolas,monospace" font-weight="600" text-anchor="middle">4</text><circle cx="770" cy="400" r="2.1" fill="#a3927b"/><text x="770" y="411.5" fill="#7a6a54" font-size="7.5" font-family="'SF Mono',Menlo,Consolas,monospace" font-weight="600" text-anchor="middle">5</text><circle cx="785.3" cy="405" r="2.1" fill="#a3927b"/><text x="780.3" y="414.8" fill="#7a6a54" font-size="7.5" font-family="'SF Mono',Menlo,Consolas,monospace" font-weight="600" text-anchor="middle">6</text><circle cx="794.7" cy="418" r="2.1" fill="#a3927b"/><text x="786.6" y="423.6" fill="#7a6a54" font-size="7.5" font-family="'SF Mono',Menlo,Consolas,monospace" font-weight="600" text-anchor="middle">7</text><circle cx="794.7" cy="434" r="2.1" fill="#a3927b"/><text x="786.6" y="434.4" fill="#7a6a54" font-size="7.5" font-family="'SF Mono',Menlo,Consolas,monospace" font-weight="600" text-anchor="middle">8</text><circle cx="785.3" cy="447" r="2.1" fill="#a3927b"/><text x="780.3" y="443.2" fill="#7a6a54" font-size="7.5" font-family="'SF Mono',Menlo,Consolas,monospace" font-weight="600" text-anchor="middle">9</text><text x="770" y="467" fill="#eee2c8" font-size="12" font-family="'Avenir Next Condensed','Arial Narrow','Helvetica Neue',Arial,sans-serif" font-weight="600" text-anchor="middle" letter-spacing="0.05em">V1 · 12AX7</text>
<circle cx="518" cy="66" r="18" fill="#211a14" stroke="#a3927b" stroke-width="1.6"/><circle cx="518" cy="66" r="3" fill="#a3927b"/><line x1="518" y1="66" x2="518" y2="51" stroke="#e89b3f" stroke-width="2"/><circle cx="507" cy="88" r="1.9" fill="#a3927b"/><circle cx="518" cy="88" r="1.9" fill="#a3927b"/><circle cx="529" cy="88" r="1.9" fill="#a3927b"/><text x="518" y="98" fill="#eee2c8" font-size="11.5" font-family="'Avenir Next Condensed','Arial Narrow','Helvetica Neue',Arial,sans-serif" font-weight="600" text-anchor="middle" letter-spacing="0.04em">Volume</text><text x="518" y="111" fill="#a3927b" font-size="10.5" font-family="'SF Mono',Menlo,Consolas,monospace" font-weight="500" text-anchor="middle">1 MΩ</text>
<circle cx="734" cy="66" r="9" fill="#120f0c" stroke="#a3927b" stroke-width="1.6"/><circle cx="734" cy="66" r="3" fill="#a3927b"/><text x="734" y="88" fill="#a3927b" font-size="10.5" font-family="'Avenir Next Condensed','Arial Narrow','Helvetica Neue',Arial,sans-serif" font-weight="600" text-anchor="middle" letter-spacing="0.03em">In 1</text>
<circle cx="806" cy="66" r="9" fill="#120f0c" stroke="#a3927b" stroke-width="1.6"/><circle cx="806" cy="66" r="3" fill="#a3927b"/><text x="806" y="88" fill="#a3927b" font-size="10.5" font-family="'Avenir Next Condensed','Arial Narrow','Helvetica Neue',Arial,sans-serif" font-weight="600" text-anchor="middle" letter-spacing="0.03em">In 2</text>
<rect x="927" y="224" width="46" height="56" rx="4" fill="#211a14" stroke="#3a3025" stroke-width="1.5"/><line x1="944" y1="229" x2="944" y2="275" stroke="#7a6a54" stroke-width="1.4"/><line x1="950" y1="229" x2="950" y2="275" stroke="#7a6a54" stroke-width="1.4"/><line x1="956" y1="229" x2="956" y2="275" stroke="#7a6a54" stroke-width="1.4"/><text x="950" y="294" fill="#eee2c8" font-size="11.5" font-family="'Avenir Next Condensed','Arial Narrow','Helvetica Neue',Arial,sans-serif" font-weight="600" text-anchor="middle" letter-spacing="0.04em">Output trans</text><text x="950" y="307" fill="#a3927b" font-size="10.5" font-family="'SF Mono',Menlo,Consolas,monospace" font-weight="500" text-anchor="middle">≈5 kΩ : 8 Ω</text>
<line x1="158" y1="194" x2="230" y2="194" stroke="#cbb891" stroke-width="2"/><rect x="166" y="160" width="56" height="42" rx="6" fill="#93a0a9" stroke="#586066" stroke-width="1.2"/><ellipse cx="194" cy="160" rx="28" ry="4.5" fill="#aab5bd" stroke="#586066" stroke-width="1"/><line x1="172" y1="169" x2="180" y2="169" stroke="#120f0c" stroke-width="1.6"/><line x1="176" y1="165" x2="176" y2="173" stroke="#120f0c" stroke-width="1.6"/><line x1="166" y1="200" x2="222" y2="200" stroke="#586066" stroke-width="1"/><text x="194" y="154" fill="#5e3d15" font-size="11.5" font-family="'Avenir Next Condensed','Arial Narrow','Helvetica Neue',Arial,sans-serif" font-weight="700" text-anchor="middle" letter-spacing="0.02em">C5</text><text x="194" y="218" fill="#26190c" font-size="11" font-family="'SF Mono',Menlo,Consolas,monospace" font-weight="600" text-anchor="middle">16 µF</text><circle cx="158" cy="194" r="4" fill="#e7cd92" stroke="#6f5836" stroke-width="0.8"/><circle cx="158" cy="194" r="1.8" fill="#2a2016"/><circle cx="230" cy="194" r="4" fill="#e7cd92" stroke="#6f5836" stroke-width="0.8"/><circle cx="230" cy="194" r="1.8" fill="#2a2016"/>
<line x1="266" y1="194" x2="338" y2="194" stroke="#cbb891" stroke-width="2"/><rect x="274" y="160" width="56" height="42" rx="6" fill="#93a0a9" stroke="#586066" stroke-width="1.2"/><ellipse cx="302" cy="160" rx="28" ry="4.5" fill="#aab5bd" stroke="#586066" stroke-width="1"/><line x1="280" y1="169" x2="288" y2="169" stroke="#120f0c" stroke-width="1.6"/><line x1="284" y1="165" x2="284" y2="173" stroke="#120f0c" stroke-width="1.6"/><line x1="274" y1="200" x2="330" y2="200" stroke="#586066" stroke-width="1"/><text x="302" y="154" fill="#5e3d15" font-size="11.5" font-family="'Avenir Next Condensed','Arial Narrow','Helvetica Neue',Arial,sans-serif" font-weight="700" text-anchor="middle" letter-spacing="0.02em">C7</text><text x="302" y="218" fill="#26190c" font-size="11" font-family="'SF Mono',Menlo,Consolas,monospace" font-weight="600" text-anchor="middle">8 µF</text><circle cx="266" cy="194" r="4" fill="#e7cd92" stroke="#6f5836" stroke-width="0.8"/><circle cx="266" cy="194" r="1.8" fill="#2a2016"/><circle cx="338" cy="194" r="4" fill="#e7cd92" stroke="#6f5836" stroke-width="0.8"/><circle cx="338" cy="194" r="1.8" fill="#2a2016"/>
<line x1="374" y1="194" x2="446" y2="194" stroke="#cbb891" stroke-width="2"/><rect x="382" y="160" width="56" height="42" rx="6" fill="#93a0a9" stroke="#586066" stroke-width="1.2"/><ellipse cx="410" cy="160" rx="28" ry="4.5" fill="#aab5bd" stroke="#586066" stroke-width="1"/><line x1="388" y1="169" x2="396" y2="169" stroke="#120f0c" stroke-width="1.6"/><line x1="392" y1="165" x2="392" y2="173" stroke="#120f0c" stroke-width="1.6"/><line x1="382" y1="200" x2="438" y2="200" stroke="#586066" stroke-width="1"/><text x="410" y="154" fill="#5e3d15" font-size="11.5" font-family="'Avenir Next Condensed','Arial Narrow','Helvetica Neue',Arial,sans-serif" font-weight="700" text-anchor="middle" letter-spacing="0.02em">C8</text><text x="410" y="218" fill="#26190c" font-size="11" font-family="'SF Mono',Menlo,Consolas,monospace" font-weight="600" text-anchor="middle">8 µF</text><circle cx="374" cy="194" r="4" fill="#e7cd92" stroke="#6f5836" stroke-width="0.8"/><circle cx="374" cy="194" r="1.8" fill="#2a2016"/><circle cx="446" cy="194" r="4" fill="#e7cd92" stroke="#6f5836" stroke-width="0.8"/><circle cx="446" cy="194" r="1.8" fill="#2a2016"/>
<line x1="158" y1="310" x2="194" y2="310" stroke="#cbb891" stroke-width="2"/><rect x="163" y="302" width="26" height="16" rx="7" fill="#e2d4b0" stroke="#8a6f4e" stroke-width="1"/><line x1="168" y1="303" x2="168" y2="317" stroke="#8a6f4e" stroke-width="2"/><line x1="184" y1="303" x2="184" y2="317" stroke="#8a6f4e" stroke-width="2"/><text x="176" y="296" fill="#5e3d15" font-size="11.5" font-family="'Avenir Next Condensed','Arial Narrow','Helvetica Neue',Arial,sans-serif" font-weight="700" text-anchor="middle" letter-spacing="0.02em">R13</text><text x="176" y="331" fill="#26190c" font-size="11" font-family="'SF Mono',Menlo,Consolas,monospace" font-weight="600" text-anchor="middle">22 kΩ</text><circle cx="158" cy="310" r="4" fill="#e7cd92" stroke="#6f5836" stroke-width="0.8"/><circle cx="158" cy="310" r="1.8" fill="#2a2016"/><circle cx="194" cy="310" r="4" fill="#e7cd92" stroke="#6f5836" stroke-width="0.8"/><circle cx="194" cy="310" r="1.8" fill="#2a2016"/>
<line x1="266" y1="310" x2="302" y2="310" stroke="#cbb891" stroke-width="2"/><rect x="271" y="302" width="26" height="16" rx="7" fill="#e2d4b0" stroke="#8a6f4e" stroke-width="1"/><line x1="276" y1="303" x2="276" y2="317" stroke="#8a6f4e" stroke-width="2"/><line x1="292" y1="303" x2="292" y2="317" stroke="#8a6f4e" stroke-width="2"/><text x="284" y="296" fill="#5e3d15" font-size="11.5" font-family="'Avenir Next Condensed','Arial Narrow','Helvetica Neue',Arial,sans-serif" font-weight="700" text-anchor="middle" letter-spacing="0.02em">R10</text><text x="284" y="331" fill="#26190c" font-size="11" font-family="'SF Mono',Menlo,Consolas,monospace" font-weight="600" text-anchor="middle">10 kΩ</text><circle cx="266" cy="310" r="4" fill="#e7cd92" stroke="#6f5836" stroke-width="0.8"/><circle cx="266" cy="310" r="1.8" fill="#2a2016"/><circle cx="302" cy="310" r="4" fill="#e7cd92" stroke="#6f5836" stroke-width="0.8"/><circle cx="302" cy="310" r="1.8" fill="#2a2016"/>
<line x1="374" y1="310" x2="410" y2="310" stroke="#cbb891" stroke-width="2"/><rect x="379" y="302" width="26" height="16" rx="7" fill="#e2d4b0" stroke="#8a6f4e" stroke-width="1"/><line x1="384" y1="303" x2="384" y2="317" stroke="#8a6f4e" stroke-width="2"/><line x1="400" y1="303" x2="400" y2="317" stroke="#8a6f4e" stroke-width="2"/><text x="392" y="296" fill="#5e3d15" font-size="11.5" font-family="'Avenir Next Condensed','Arial Narrow','Helvetica Neue',Arial,sans-serif" font-weight="700" text-anchor="middle" letter-spacing="0.02em">R11</text><text x="392" y="331" fill="#26190c" font-size="11" font-family="'SF Mono',Menlo,Consolas,monospace" font-weight="600" text-anchor="middle">22 kΩ</text><circle cx="374" cy="310" r="4" fill="#e7cd92" stroke="#6f5836" stroke-width="0.8"/><circle cx="374" cy="310" r="1.8" fill="#2a2016"/><circle cx="410" cy="310" r="4" fill="#e7cd92" stroke="#6f5836" stroke-width="0.8"/><circle cx="410" cy="310" r="1.8" fill="#2a2016"/>
<line x1="482" y1="194" x2="482" y2="310" stroke="#cbb891" stroke-width="2"/><rect x="474.5" y="232" width="15" height="40" rx="6" fill="#e2d4b0" stroke="#8a6f4e" stroke-width="1"/><line x1="475.5" y1="237" x2="488.5" y2="237" stroke="#8a6f4e" stroke-width="2"/><line x1="475.5" y1="267" x2="488.5" y2="267" stroke="#8a6f4e" stroke-width="2"/><text x="495.5" y="249" fill="#5e3d15" font-size="11.5" font-family="'Avenir Next Condensed','Arial Narrow','Helvetica Neue',Arial,sans-serif" font-weight="700" text-anchor="start" letter-spacing="0.02em">R8</text><text x="495.5" y="263" fill="#26190c" font-size="11" font-family="'SF Mono',Menlo,Consolas,monospace" font-weight="600" text-anchor="start">470 Ω</text><circle cx="482" cy="194" r="4" fill="#e7cd92" stroke="#6f5836" stroke-width="0.8"/><circle cx="482" cy="194" r="1.8" fill="#2a2016"/><circle cx="482" cy="310" r="4" fill="#e7cd92" stroke="#6f5836" stroke-width="0.8"/><circle cx="482" cy="310" r="1.8" fill="#2a2016"/>
<line x1="518" y1="194" x2="554" y2="194" stroke="#cbb891" stroke-width="2"/><rect x="523" y="160" width="26" height="42" rx="6" fill="#93a0a9" stroke="#586066" stroke-width="1.2"/><ellipse cx="536" cy="160" rx="13" ry="4.5" fill="#aab5bd" stroke="#586066" stroke-width="1"/><line x1="529" y1="169" x2="537" y2="169" stroke="#120f0c" stroke-width="1.6"/><line x1="533" y1="165" x2="533" y2="173" stroke="#120f0c" stroke-width="1.6"/><line x1="523" y1="200" x2="549" y2="200" stroke="#586066" stroke-width="1"/><text x="536" y="154" fill="#5e3d15" font-size="11.5" font-family="'Avenir Next Condensed','Arial Narrow','Helvetica Neue',Arial,sans-serif" font-weight="700" text-anchor="middle" letter-spacing="0.02em">C6</text><text x="536" y="218" fill="#26190c" font-size="11" font-family="'SF Mono',Menlo,Consolas,monospace" font-weight="600" text-anchor="middle">25 µF</text><circle cx="518" cy="194" r="4" fill="#e7cd92" stroke="#6f5836" stroke-width="0.8"/><circle cx="518" cy="194" r="1.8" fill="#2a2016"/><circle cx="554" cy="194" r="4" fill="#e7cd92" stroke="#6f5836" stroke-width="0.8"/><circle cx="554" cy="194" r="1.8" fill="#2a2016"/>
<line x1="518" y1="310" x2="554" y2="310" stroke="#cbb891" stroke-width="2"/><rect x="523" y="302" width="26" height="16" rx="7" fill="#e2d4b0" stroke="#8a6f4e" stroke-width="1"/><line x1="528" y1="303" x2="528" y2="317" stroke="#8a6f4e" stroke-width="2"/><line x1="544" y1="303" x2="544" y2="317" stroke="#8a6f4e" stroke-width="2"/><text x="536" y="296" fill="#5e3d15" font-size="11.5" font-family="'Avenir Next Condensed','Arial Narrow','Helvetica Neue',Arial,sans-serif" font-weight="700" text-anchor="middle" letter-spacing="0.02em">R9</text><text x="536" y="331" fill="#26190c" font-size="11" font-family="'SF Mono',Menlo,Consolas,monospace" font-weight="600" text-anchor="middle">220 kΩ</text><circle cx="518" cy="310" r="4" fill="#e7cd92" stroke="#6f5836" stroke-width="0.8"/><circle cx="518" cy="310" r="1.8" fill="#2a2016"/><circle cx="554" cy="310" r="4" fill="#e7cd92" stroke="#6f5836" stroke-width="0.8"/><circle cx="554" cy="310" r="1.8" fill="#2a2016"/>
<line x1="626" y1="194" x2="698" y2="194" stroke="#cbb891" stroke-width="2"/><rect x="634" y="183" width="56" height="22" rx="10" fill="#caa23e" stroke="#8a6d28" stroke-width="1.2"/><line x1="662" y1="185" x2="662" y2="203" stroke="#8a6d28" stroke-width="0.8" opacity="0.7"/><text x="662" y="177" fill="#5e3d15" font-size="11.5" font-family="'Avenir Next Condensed','Arial Narrow','Helvetica Neue',Arial,sans-serif" font-weight="700" text-anchor="middle" letter-spacing="0.02em">C3</text><text x="662" y="216" fill="#26190c" font-size="11" font-family="'SF Mono',Menlo,Consolas,monospace" font-weight="600" text-anchor="middle">0.02 µF</text><circle cx="626" cy="194" r="4" fill="#e7cd92" stroke="#6f5836" stroke-width="0.8"/><circle cx="626" cy="194" r="1.8" fill="#2a2016"/><circle cx="698" cy="194" r="4" fill="#e7cd92" stroke="#6f5836" stroke-width="0.8"/><circle cx="698" cy="194" r="1.8" fill="#2a2016"/>
<line x1="626" y1="310" x2="662" y2="310" stroke="#cbb891" stroke-width="2"/><rect x="631" y="302" width="26" height="16" rx="7" fill="#e2d4b0" stroke="#8a6f4e" stroke-width="1"/><line x1="636" y1="303" x2="636" y2="317" stroke="#8a6f4e" stroke-width="2"/><line x1="652" y1="303" x2="652" y2="317" stroke="#8a6f4e" stroke-width="2"/><text x="644" y="296" fill="#5e3d15" font-size="11.5" font-family="'Avenir Next Condensed','Arial Narrow','Helvetica Neue',Arial,sans-serif" font-weight="700" text-anchor="middle" letter-spacing="0.02em">R7</text><text x="644" y="331" fill="#26190c" font-size="11" font-family="'SF Mono',Menlo,Consolas,monospace" font-weight="600" text-anchor="middle">100 kΩ</text><circle cx="626" cy="310" r="4" fill="#e7cd92" stroke="#6f5836" stroke-width="0.8"/><circle cx="626" cy="310" r="1.8" fill="#2a2016"/><circle cx="662" cy="310" r="4" fill="#e7cd92" stroke="#6f5836" stroke-width="0.8"/><circle cx="662" cy="310" r="1.8" fill="#2a2016"/>
<line x1="590" y1="194" x2="590" y2="310" stroke="#cbb891" stroke-width="2"/><rect x="582.5" y="232" width="15" height="40" rx="6" fill="#e2d4b0" stroke="#8a6f4e" stroke-width="1"/><line x1="583.5" y1="237" x2="596.5" y2="237" stroke="#8a6f4e" stroke-width="2"/><line x1="583.5" y1="267" x2="596.5" y2="267" stroke="#8a6f4e" stroke-width="2"/><text x="603.5" y="249" fill="#5e3d15" font-size="11.5" font-family="'Avenir Next Condensed','Arial Narrow','Helvetica Neue',Arial,sans-serif" font-weight="700" text-anchor="start" letter-spacing="0.02em">R6</text><text x="603.5" y="263" fill="#26190c" font-size="11" font-family="'SF Mono',Menlo,Consolas,monospace" font-weight="600" text-anchor="start">1.5 kΩ</text><circle cx="590" cy="194" r="4" fill="#e7cd92" stroke="#6f5836" stroke-width="0.8"/><circle cx="590" cy="194" r="1.8" fill="#2a2016"/><circle cx="590" cy="310" r="4" fill="#e7cd92" stroke="#6f5836" stroke-width="0.8"/><circle cx="590" cy="310" r="1.8" fill="#2a2016"/>
<line x1="698" y1="310" x2="734" y2="310" stroke="#cbb891" stroke-width="2"/><rect x="703" y="302" width="26" height="16" rx="7" fill="#e2d4b0" stroke="#8a6f4e" stroke-width="1"/><line x1="708" y1="303" x2="708" y2="317" stroke="#8a6f4e" stroke-width="2"/><line x1="724" y1="303" x2="724" y2="317" stroke="#8a6f4e" stroke-width="2"/><text x="716" y="296" fill="#5e3d15" font-size="11.5" font-family="'Avenir Next Condensed','Arial Narrow','Helvetica Neue',Arial,sans-serif" font-weight="700" text-anchor="middle" letter-spacing="0.02em">R5</text><text x="716" y="331" fill="#26190c" font-size="11" font-family="'SF Mono',Menlo,Consolas,monospace" font-weight="600" text-anchor="middle">100 kΩ</text><circle cx="698" cy="310" r="4" fill="#e7cd92" stroke="#6f5836" stroke-width="0.8"/><circle cx="698" cy="310" r="1.8" fill="#2a2016"/><circle cx="734" cy="310" r="4" fill="#e7cd92" stroke="#6f5836" stroke-width="0.8"/><circle cx="734" cy="310" r="1.8" fill="#2a2016"/>
<line x1="734" y1="194" x2="734" y2="310" stroke="#cbb891" stroke-width="2"/><rect x="726.5" y="232" width="15" height="40" rx="6" fill="#e2d4b0" stroke="#8a6f4e" stroke-width="1"/><line x1="727.5" y1="237" x2="740.5" y2="237" stroke="#8a6f4e" stroke-width="2"/><line x1="727.5" y1="267" x2="740.5" y2="267" stroke="#8a6f4e" stroke-width="2"/><text x="747.5" y="249" fill="#5e3d15" font-size="11.5" font-family="'Avenir Next Condensed','Arial Narrow','Helvetica Neue',Arial,sans-serif" font-weight="700" text-anchor="start" letter-spacing="0.02em">R4</text><text x="747.5" y="263" fill="#26190c" font-size="11" font-family="'SF Mono',Menlo,Consolas,monospace" font-weight="600" text-anchor="start">1.5 kΩ</text><circle cx="734" cy="194" r="4" fill="#e7cd92" stroke="#6f5836" stroke-width="0.8"/><circle cx="734" cy="194" r="1.8" fill="#2a2016"/><circle cx="734" cy="310" r="4" fill="#e7cd92" stroke="#6f5836" stroke-width="0.8"/><circle cx="734" cy="310" r="1.8" fill="#2a2016"/>
<line x1="770" y1="194" x2="842" y2="194" stroke="#cbb891" stroke-width="2"/><rect x="778" y="183" width="56" height="22" rx="10" fill="#caa23e" stroke="#8a6d28" stroke-width="1.2"/><line x1="806" y1="185" x2="806" y2="203" stroke="#8a6d28" stroke-width="0.8" opacity="0.7"/><text x="806" y="177" fill="#5e3d15" font-size="11.5" font-family="'Avenir Next Condensed','Arial Narrow','Helvetica Neue',Arial,sans-serif" font-weight="700" text-anchor="middle" letter-spacing="0.02em">C1</text><text x="806" y="216" fill="#26190c" font-size="11" font-family="'SF Mono',Menlo,Consolas,monospace" font-weight="600" text-anchor="middle">0.02 µF</text><circle cx="770" cy="194" r="4" fill="#e7cd92" stroke="#6f5836" stroke-width="0.8"/><circle cx="770" cy="194" r="1.8" fill="#2a2016"/><circle cx="842" cy="194" r="4" fill="#e7cd92" stroke="#6f5836" stroke-width="0.8"/><circle cx="842" cy="194" r="1.8" fill="#2a2016"/>
<line x1="806" y1="310" x2="842" y2="310" stroke="#cbb891" stroke-width="2"/><rect x="811" y="302" width="26" height="16" rx="7" fill="#e2d4b0" stroke="#8a6f4e" stroke-width="1"/><line x1="816" y1="303" x2="816" y2="317" stroke="#8a6f4e" stroke-width="2"/><line x1="832" y1="303" x2="832" y2="317" stroke="#8a6f4e" stroke-width="2"/><text x="824" y="296" fill="#5e3d15" font-size="11.5" font-family="'Avenir Next Condensed','Arial Narrow','Helvetica Neue',Arial,sans-serif" font-weight="700" text-anchor="middle" letter-spacing="0.02em">R3</text><text x="824" y="331" fill="#26190c" font-size="11" font-family="'SF Mono',Menlo,Consolas,monospace" font-weight="600" text-anchor="middle">68 kΩ</text><circle cx="806" cy="310" r="4" fill="#e7cd92" stroke="#6f5836" stroke-width="0.8"/><circle cx="806" cy="310" r="1.8" fill="#2a2016"/><circle cx="842" cy="310" r="4" fill="#e7cd92" stroke="#6f5836" stroke-width="0.8"/><circle cx="842" cy="310" r="1.8" fill="#2a2016"/>
<text x="128" y="34" fill="#eee2c8" font-size="17" font-family="'Avenir Next Condensed','Arial Narrow','Helvetica Neue',Arial,sans-serif" font-weight="600" text-anchor="start" letter-spacing="0.08em">5F1 · eyelet board layout</text>
<text x="128" y="524" fill="#7a6a54" font-size="10.5" font-family="'SF Mono',Menlo,Consolas,monospace" font-weight="500" text-anchor="start">Redrawn from Fender 'Champ-Amp' Model 5F1 layout drawing (K-EE), page 2 — not a trace</text>
<text x="128" y="562" fill="#7a6a54" font-size="10.5" font-family="'SF Mono',Menlo,Consolas,monospace" font-weight="500" text-anchor="start">Bodies:</text>
<rect x="186" y="554" width="14" height="9" rx="2.5" fill="#e2d4b0" stroke="#6f5836" stroke-width="0.6"/>
<text x="205" y="562" fill="#a3927b" font-size="10.5" font-family="'SF Mono',Menlo,Consolas,monospace" font-weight="500" text-anchor="start">resistor</text>
<rect x="263.2" y="554" width="14" height="9" rx="2.5" fill="#caa23e" stroke="#6f5836" stroke-width="0.6"/>
<text x="282.2" y="562" fill="#a3927b" font-size="10.5" font-family="'SF Mono',Menlo,Consolas,monospace" font-weight="500" text-anchor="start">film / coupling cap</text>
<rect x="410.8" y="554" width="14" height="9" rx="2.5" fill="#93a0a9" stroke="#6f5836" stroke-width="0.6"/>
<text x="429.8" y="562" fill="#a3927b" font-size="10.5" font-family="'SF Mono',Menlo,Consolas,monospace" font-weight="500" text-anchor="start">electrolytic</text>
<rect x="513.6" y="554" width="14" height="9" rx="2.5" fill="#8a5f45" stroke="#6f5836" stroke-width="0.6"/>
<text x="532.6" y="562" fill="#a3927b" font-size="10.5" font-family="'SF Mono',Menlo,Consolas,monospace" font-weight="500" text-anchor="start">mica</text>
</svg>
